<svg id="圖層_1" data-name="圖層 1" xmlns="http://www.w3.org/2000/svg" viewBox="0 0 273.04 38.64"><defs><style>.cls-1{font-size:28.67px;fill:#fff;font-family:BellMTBold, Bell MT;font-weight:700;letter-spacing:0.08em;}.cls-2{letter-spacing:0.04em;}.cls-3{letter-spacing:0.06em;}.cls-4{letter-spacing:0.14em;}.cls-5{letter-spacing:0.2em;}.cls-6{fill:#7e8580;}.cls-7{fill:#c4a98b;}</style></defs><title>LOGO</title><text class="cls-1" transform="translate(50.98 28.3) scale(0.89 1)">ALI<tspan class="cls-2" x="55.42" y="0">N</tspan><tspan class="cls-3" x="78.49" y="0">A</tspan><tspan class="cls-4" x="100.18" y="0">’</tspan><tspan x="110.38" y="0">s</tspan><tspan class="cls-5" x="124.48" y="0"> </tspan><tspan x="137.83" y="0">HOUSE</tspan></text><path class="cls-6" d="M67.74,26.31a16.35,16.35,0,0,0-5.57-2,19.27,19.27,0,0,1,3.38,7.1A15.31,15.31,0,0,1,67.74,26.31Z" transform="translate(-28.98 -18.18)"/><path class="cls-6" d="M67.14,35.69a16.61,16.61,0,0,0,4.59-6.08l-.25-.29a16.39,16.39,0,0,0-2.54-2.24C66.13,31.5,66.66,34.45,67.14,35.69Z" transform="translate(-28.98 -18.18)"/><path class="cls-6" d="M59.56,50.45a19.31,19.31,0,0,1-8.13,4.28,16.46,16.46,0,0,0,14.29.84A21.82,21.82,0,0,0,59.56,50.45Z" transform="translate(-28.98 -18.18)"/><path class="cls-6" d="M68.52,36.33a12.37,12.37,0,0,1,7.29,4.45,16.34,16.34,0,0,0-3.1-9.94A18.94,18.94,0,0,1,68.52,36.33Z" transform="translate(-28.98 -18.18)"/><path class="cls-6" d="M67.06,37.51q-.52.37-1.08.72a19.18,19.18,0,0,1-1.38,5.25A17.29,17.29,0,0,1,72,51a16.3,16.3,0,0,0,3.6-7.72C73.7,38.68,68.24,37.67,67.06,37.51Z" transform="translate(-28.98 -18.18)"/><path class="cls-6" d="M64,44.8a19.43,19.43,0,0,1-3.35,4.65A23.22,23.22,0,0,1,67.06,55a16.34,16.34,0,0,0,3.51-2.47l.36-.35A15.71,15.71,0,0,0,64,44.8Z" transform="translate(-28.98 -18.18)"/><path class="cls-6" d="M66.07,37.45a3.82,3.82,0,0,1-.1.78q.57-.35,1.08-.72l-.23,0a4,4,0,0,0-.56,0h-.2" transform="translate(-28.98 -18.18)"/><path class="cls-7" d="M48.65,26.33a18,18,0,0,0-1.46-8.15h-.42a17.79,17.79,0,0,0-3.66.38C44.56,24,47.3,25.79,48.65,26.33Z" transform="translate(-28.98 -18.18)"/><path class="cls-7" d="M43.43,39.15a20.18,20.18,0,0,1,1.93-3.63,17.56,17.56,0,0,0,3.12-7.61c-1.55-.51-5.14-2.38-6.87-9a17.79,17.79,0,0,0-7,4C35.22,34.94,41.42,38.35,43.43,39.15Z" transform="translate(-28.98 -18.18)"/><path class="cls-7" d="M43.55,51.2c-1.67-.84-12.24-6.55-14.48-17Q29,35.06,29,36A17.81,17.81,0,0,0,45.54,53.71,11.83,11.83,0,0,1,43.55,51.2Z" transform="translate(-28.98 -18.18)"/><path class="cls-7" d="M42.53,48.86a12.76,12.76,0,0,1-.14-6.41,18.18,18.18,0,0,1,.5-1.85c-2.3-.88-8.66-4.36-9.71-16.11a17.81,17.81,0,0,0-3,5C29.77,39.94,38.56,46.47,42.53,48.86Z" transform="translate(-28.98 -18.18)"/><path class="cls-7" d="M45,50.61a11.21,11.21,0,0,0,2.95,3.1A17.83,17.83,0,0,0,63.46,42.11C51.52,41.6,46.13,48.85,45,50.61Z" transform="translate(-28.98 -18.18)"/><path class="cls-7" d="M44.5,40.61a12.12,12.12,0,0,0-.28,8.45c2-2.72,8.15-9.12,19.73-8.47A17.75,17.75,0,0,0,64.56,36c0-.18,0-.37,0-.55C55,32.08,45.57,39.7,44.5,40.61Z" transform="translate(-28.98 -18.18)"/><path class="cls-7" d="M50.17,25.7a13.43,13.43,0,0,1,8.93-2.53,17.74,17.74,0,0,0-10.21-4.86A20.56,20.56,0,0,1,50.17,25.7Z" transform="translate(-28.98 -18.18)"/><path class="cls-7" d="M50,27.74a18.82,18.82,0,0,1-3.41,8.68c-.06.08-.36.52-.76,1.23,3.67-2.48,10.89-6.23,18.55-3.89a17.7,17.7,0,0,0-3.51-8.56C55.86,23.3,51,26.91,50,27.74Z" transform="translate(-28.98 -18.18)"/><path class="cls-6" d="M66.5,37.45" transform="translate(-28.98 -18.18)"/><line class="cls-6" x1="37.29" y1="19.26" x2="37.29" y2="19.26"/></svg>