<?xml version="1.0" encoding="UTF-8"?>
<svg width="17px" height="16px" viewBox="0 0 17 16" version="1.1" xmlns="http://www.w3.org/2000/svg" xmlns:xlink="http://www.w3.org/1999/xlink">
    <!-- Generator: Sketch 60.1 (88133) - https://sketch.com -->
    <title>Combined Shape</title>
    <desc>Created with Sketch.</desc>
    <g id="Website-3" stroke="none" stroke-width="1" fill="none" fill-rule="evenodd">
        <g id="4.-Category" transform="translate(-289.000000, -66.000000)" fill="#F7F1E4">
            <g id="Group-3" transform="translate(152.000000, 64.000000)">
                <g id="Group-2" transform="translate(106.500000, 10.000000) rotate(-360.000000) translate(-106.500000, -10.000000) translate(59.000000, 2.000000)">
                    <path d="M94.176449,0.133253959 C94.3655331,-0.0444179865 94.668969,-0.0444179865 94.8580531,0.133253959 C95.0473156,0.311051646 95.0473156,0.595938699 94.8580531,0.773736385 L94.8580531,0.773736385 L87.1662827,7.99956515 L94.854573,15.2256035 C95.0436571,15.4032335 95.0436571,15.6882882 94.854573,15.8659182 C94.7616817,15.9564517 94.6367113,16 94.5153995,16 C94.3941322,16 94.2691618,15.9531825 94.176449,15.8659182 L94.176449,15.8659182 L86.5,8.658 L78.823551,15.8659182 C78.7308382,15.9531825 78.6058678,16 78.4846005,16 C78.3632887,16 78.2383183,15.9564517 78.145427,15.8659182 C77.9563429,15.6882882 77.9563429,15.4032335 78.145427,15.2256035 L85.8337173,7.99956515 L78.1419469,0.773736385 C77.9526844,0.595938699 77.9526844,0.311051646 78.1419469,0.133253959 C78.331031,-0.0444179865 78.6344669,-0.0444179865 78.823551,0.133253959 L86.5,7.344 Z" id="Combined-Shape"></path>
                </g>
            </g>
        </g>
    </g>
</svg>