<?xml version="1.0" encoding="UTF-8"?>
<svg width="49px" height="74px" viewBox="0 0 49 74" version="1.1" xmlns="http://www.w3.org/2000/svg" xmlns:xlink="http://www.w3.org/1999/xlink">
    <!-- Generator: Sketch 60.1 (88133) - https://sketch.com -->
    <title>Cream Logo</title>
    <desc>Created with Sketch.</desc>
    <g id="Website-3" stroke="none" stroke-width="1" fill="none" fill-rule="evenodd">
        <g id="4.-Category" transform="translate(-616.000000, -40.000000)" fill="#C39B54">
            <g id="Group" transform="translate(616.000000, 40.000000)">
                <g id="Cream-Logo">
                    <path d="M7.88636948,3.93090097 C6.956329,3.93090097 6.02663044,3.93156941 5.09658995,3.93056675 C4.00994706,3.92922987 4.00960513,3.92856143 4.00926321,2.90718594 C4.00892128,2.15853375 4.03012073,1.40954734 4.00139889,0.661897805 C3.98430256,0.228749036 4.12073129,0.0155168495 4.58643539,0.0121746523 C8.47106406,-0.0155655852 12.3652667,-0.100123177 16.1045765,1.1886281 C20.1174277,2.57196355 22.3153322,5.4526034 22.4821924,9.62399983 C22.670594,14.3408429 21.4858181,18.7037472 18.9548771,22.7531534 C16.7986876,26.2029695 15.4190136,29.9746391 14.6643815,33.9495144 C13.6929678,39.0654157 14.9851087,43.6682898 18.2282829,47.7220409 C21.481715,51.7888266 25.6945932,54.3412627 31.0351456,54.8552926 C34.2027541,55.160101 37.0677575,54.3880534 39.4236321,52.2069355 C40.7882613,50.9439191 41.1872897,49.3750917 40.8009126,47.5830055 C40.7540687,47.3654285 40.2972547,46.9536698 40.9229804,46.8333507 C41.358595,46.7497957 41.6034145,46.9543382 41.7384755,47.4035295 C42.6083369,50.2995435 41.265249,53.0745699 38.3496405,54.4104461 C36.6444523,55.1918519 34.8390795,55.6036106 32.9885725,55.8068162 C29.1367688,56.2299383 25.3612148,56.030075 21.7354246,54.4792954 C17.5314364,52.6805248 14.0824223,49.9516207 11.2522954,46.4637037 C8.45978048,43.0222431 6.45677416,39.2041169 5.71650297,34.8191541 C4.92357507,30.1237011 6.11655715,26.0642683 9.59600273,22.6435294 C11.9529031,20.326384 14.7324249,18.5907809 17.4763862,16.7893366 C18.7941715,15.9243759 20.1030667,15.0233195 20.9582253,13.6720692 C22.9345613,10.5484516 21.4892374,6.61702493 17.901401,5.22633664 C15.1249567,4.15048333 12.20969,4.01144793 9.28143021,3.93290629 C8.8167519,3.92020594 8.35138973,3.93090097 7.88636948,3.93090097" id="Fill-1"></path>
                    <path d="M1.55535794,68.2218322 C2.75161269,68.2401187 3.57031435,68.1579427 4.01146292,67.9753043 C4.80769487,67.645133 5.13589251,67.1246517 5.13589251,65.8661079 C5.13589251,64.5687446 4.51203551,64.135191 4.01146292,63.9744026 C3.38984315,63.8107548 2.23318924,63.8212409 1.55535794,63.8212409 C1.56154226,66.3589886 1.56154226,67.8258524 1.55535794,68.2218322 Z M0.011750219,63.0474547 C2.18059327,62.9485726 3.6964746,63.004222 4.55939419,63.2144029 C6.12341018,63.5953698 6.9533467,64.7636684 6.74029668,66.2536724 C6.56280653,67.4924076 5.62532815,68.1405593 4.65377057,68.5286376 C3.87856533,68.8381521 3.99847584,68.7477359 4.52074215,69.4344923 C5.53249785,70.7653368 6.99350098,72.6644146 8,74 L5.69444681,74 C5.00303919,72.7240148 3.49828663,70.0931418 2.75585831,68.8476339 L1.56370678,68.8476339 C1.54206164,70.0931418 1.52474552,72.7561853 1.56370678,74 L0,74 C0.0380336036,72.3762343 0.011750219,70.1534192 0.011750219,68.5286376 C0.0115440748,67.4637363 0.0115440748,65.6366753 0.011750219,63.0474547 Z" id="Fill-3"></path>
                    <path d="M43.1683867,65.5412588 C42.5578867,66.8350529 42.0401533,67.9221118 41.5319533,69.0127294 C41.0792422,69.9841804 40.289157,71.6249233 39.1616975,73.9349581 C38.9093632,73.9349581 38.5846474,73.9349581 38.3057738,73.9349581 L43.5483143,63.2909432 L48.39632,73.9759941 L46.996713,73.9971486" id="Fill-5"></path>
                    <path d="M18.1683867,65.5412588 C17.5578867,66.8350529 17.0401533,67.9221118 16.5319533,69.0127294 C16.0792422,69.9841804 15.289157,71.6249233 14.1616975,73.9349581 C13.9093632,73.9349581 13.5846474,73.9349581 13.3057738,73.9349581 L18.5483143,63.2909432 L23.39632,73.9759941 L21.996713,73.9971486" id="Fill-5"></path>
                    <path d="M31.9883081,68.5609407 C31.9883081,70.1035275 31.9664205,72.4591084 31.9979891,73.999661 C31.9131046,73.9992089 31.7421431,73.9992089 31.4851044,73.999661 C31.2352213,74.000113 31.0742213,74.000113 31.0021046,73.999661 C31.0206248,70.8609206 31.0239921,66.1389099 31,63.0001695 C31.0903564,62.9999435 31.2619493,62.9999435 31.5147789,63.0001695 C31.7598916,63.0003955 31.921632,63.0016804 32,63.0040241 C31.9709569,64.5991605 31.990319,66.9293706 31.990319,68.5258632" id="Fill-11"></path>
                </g>
            </g>
        </g>
    </g>
</svg>