<?xml version="1.0" encoding="utf-8"?>
<!-- Generator: Adobe Illustrator 22.0.1, SVG Export Plug-In . SVG Version: 6.00 Build 0)  -->
<svg version="1.1" id="圖層_1" xmlns="http://www.w3.org/2000/svg" xmlns:xlink="http://www.w3.org/1999/xlink" x="0px" y="0px"
	 viewBox="0 0 273 38.6" style="enable-background:new 0 0 273 38.6;" xml:space="preserve">
<style type="text/css">
	.st0{fill:#FFFFFF;}
	.st1{font-family:'BigCaslon-Medium';}
	.st2{font-size:28.67px;}
	.st3{letter-spacing:2.2;}
	.st4{letter-spacing:1.1;}
	.st5{letter-spacing:3.4;}
	.st6{letter-spacing:5.6;}
	.st7{fill:#7E8580;}
	.st8{fill:#C4A98B;}
	.st9{fill:none;}
</style>
<title>LOGO</title>
<text transform="matrix(0.89 0 0 1 50.98 28.2998)" class="st0 st1 st2 st3">ALI</text>
<text transform="matrix(0.89 0 0 1 100.3037 28.2998)" class="st0 st1 st2">N</text>
<text transform="matrix(0.89 0 0 1 120.8359 28.2998)" class="st0 st1 st2 st4">A</text>
<text transform="matrix(0.89 0 0 1 140.1401 28.2998)" class="st0 st1 st2 st5">’</text>
<text transform="matrix(0.89 0 0 1 149.2183 28.2998)" class="st0 st1 st2 st3">s</text>
<text transform="matrix(0.89 0 0 1 161.7676 28.2998)" class="st0 st1 st2 st6"> </text>
<text transform="matrix(0.89 0 0 1 173.6489 28.2998)" class="st0 st1 st2 st3">HOUSE</text>
<path class="st7" d="M38.8,8.1c-1.7-1-3.6-1.7-5.6-2c1.6,2.1,2.8,4.5,3.4,7.1C37,11.4,37.7,9.7,38.8,8.1z"/>
<path class="st7" d="M38.2,17.5c2-1.6,3.6-3.7,4.6-6.1l-0.2-0.3c-0.8-0.8-1.6-1.6-2.5-2.2C37.1,13.3,37.7,16.3,38.2,17.5z"/>
<path class="st7" d="M30.6,32.3c-2.3,2.1-5.1,3.5-8.1,4.3c4.4,2.4,9.6,2.8,14.3,0.8C35,35.3,32.9,33.6,30.6,32.3z"/>
<path class="st7" d="M39.5,18.2c2.9,0.6,5.5,2.1,7.3,4.5c0.1-3.6-1-7.1-3.1-9.9C42.7,14.7,41.3,16.6,39.5,18.2z"/>
<path class="st7" d="M38.1,19.3c-0.3,0.2-0.7,0.5-1.1,0.7c-0.2,1.8-0.7,3.6-1.4,5.2c3.2,1.7,5.8,4.3,7.4,7.5
	c1.9-2.2,3.1-4.9,3.6-7.7C44.7,20.5,39.3,19.5,38.1,19.3z"/>
<path class="st7" d="M35,26.6c-0.9,1.7-2,3.3-3.3,4.7c2.5,1.4,4.6,3.3,6.4,5.5c1.3-0.7,2.5-1.5,3.5-2.5L42,34
	C40.5,30.8,38.1,28.2,35,26.6z"/>
<path class="st7" d="M37.1,19.3c0,0.3,0,0.5-0.1,0.8c0.4-0.2,0.7-0.5,1.1-0.7h-0.2c-0.2,0-0.4,0-0.6,0L37.1,19.3"/>
<path class="st8" d="M19.7,8.1c0.2-2.8-0.3-5.6-1.5-8.1h-0.4c-1.2,0-2.5,0.1-3.7,0.4C15.6,5.8,18.3,7.6,19.7,8.1z"/>
<path class="st8" d="M14.5,21c0.5-1.3,1.2-2.5,1.9-3.6c1.6-2.3,2.7-4.9,3.1-7.6c-1.5-0.5-5.1-2.4-6.9-9c-2.6,0.8-5,2.1-7,4
	C6.2,16.8,12.4,20.2,14.5,21z"/>
<path class="st8" d="M14.6,33c-1.7-0.8-12.2-6.5-14.5-17C0,16.6,0,17.2,0,17.8c0,9.3,7.2,17,16.5,17.7C15.8,34.8,15.1,33.9,14.6,33z
	"/>
<path class="st8" d="M13.5,30.7c-0.6-2.1-0.6-4.3-0.1-6.4c0.1-0.6,0.3-1.2,0.5-1.8c-2.3-0.9-8.7-4.4-9.7-16.1c-1.3,1.5-2.3,3.2-3,5
	C0.8,21.8,9.6,28.3,13.5,30.7z"/>
<path class="st8" d="M16,32.4c0.8,1.2,1.8,2.3,3,3.1c7-0.5,13.1-5,15.5-11.6C22.5,23.4,17.2,30.7,16,32.4z"/>
<path class="st8" d="M15.5,22.4c-1.1,2.7-1.2,5.7-0.3,8.5c2-2.7,8.2-9.1,19.7-8.5c0.4-1.5,0.6-3,0.6-4.6c0-0.2,0-0.4,0-0.5
	C26,13.9,16.6,21.5,15.5,22.4z"/>
<path class="st8" d="M21.2,7.5c2.6-1.9,5.7-2.8,8.9-2.5c-2.8-2.7-6.4-4.4-10.2-4.9C20.8,2.5,21.2,5,21.2,7.5z"/>
<path class="st8" d="M21,9.6c-0.4,3.1-1.6,6.1-3.4,8.7c-0.1,0.1-0.4,0.5-0.8,1.2c3.7-2.5,10.9-6.2,18.6-3.9C35,12.5,33.8,9.5,31.9,7
	C26.9,5.1,22,8.7,21,9.6z"/>
<path class="st7" d="M37.5,19.3"/>
<line class="st9" x1="37.3" y1="19.3" x2="37.3" y2="19.3"/>
</svg>
